<svg width="18" height="18" viewBox="0 0 18 18" fill="none" xmlns="http://www.w3.org/2000/svg">
<path d="M9 0.875C4.52 0.875 0.875 4.52 0.875 9C0.875 13.48 4.52 17.125 9 17.125C13.48 17.125 17.125 13.48 17.125 9C17.125 4.52 13.48 0.875 9 0.875ZM9 2.125C12.8044 2.125 15.875 5.19563 15.875 9C15.875 12.8044 12.8044 15.875 9 15.875C5.19563 15.875 2.125 12.8044 2.125 9C2.125 5.19563 5.19563 2.125 9 2.125ZM6.6375 5.7375L5.7375 6.6375L8.1025 9L5.73875 11.3625L6.63875 12.2625L9 9.89812L11.3625 12.2606L12.2625 11.3625L9.89812 9L12.2606 6.6375L11.3625 5.7375L9 8.1025L6.6375 5.73875V5.7375Z" fill="black"/>
</svg>
