<svg width="23" height="26" viewBox="0 0 23 26" fill="none" xmlns="http://www.w3.org/2000/svg">
<path d="M11.1538 1V3.76923M3.76923 13.9231C3.76923 9.30769 4.69231 3.76923 11.1538 3.76923C17.6154 3.76923 18.5385 9.30769 18.5385 13.9231C18.5385 18.5385 21.3077 21.3077 21.3077 21.3077H1C1 21.3077 3.76923 18.5385 3.76923 13.9231ZM14.8462 21.3077C14.8462 21.3077 14.8462 25 11.1538 25C7.46154 25 7.46154 21.3077 7.46154 21.3077H14.8462Z" stroke="black" stroke-width="1.25" stroke-linecap="round" stroke-linejoin="round"/>
<circle cx="17" cy="7" r="6" fill="#AB201F"/>
<path d="M15.353 9.295C16.057 8.68633 16.6107 8.18767 17.014 7.799C17.4247 7.403 17.7657 6.99233 18.037 6.567C18.3083 6.14167 18.444 5.71633 18.444 5.291C18.444 4.851 18.3377 4.50633 18.125 4.257C17.9197 4.00767 17.5933 3.883 17.146 3.883C16.7133 3.883 16.376 4.02233 16.134 4.301C15.8993 4.57233 15.7747 4.939 15.76 5.401H14.55C14.572 4.565 14.8213 3.927 15.298 3.487C15.782 3.03967 16.3943 2.816 17.135 2.816C17.9343 2.816 18.5577 3.036 19.005 3.476C19.4597 3.916 19.687 4.50267 19.687 5.236C19.687 5.764 19.5513 6.27367 19.28 6.765C19.016 7.249 18.697 7.68533 18.323 8.074C17.9563 8.45533 17.487 8.899 16.915 9.405L16.42 9.845H19.907V10.89H14.561V9.977L15.353 9.295Z" fill="white"/>
</svg>
