<svg width="15" height="15" viewBox="0 0 15 15" fill="none" xmlns="http://www.w3.org/2000/svg">
<path d="M14.5001 13.793L10.7241 10.017C11.6315 8.92766 12.0839 7.53042 11.9874 6.11595C11.8908 4.70149 11.2527 3.37869 10.2057 2.42276C9.15867 1.46682 7.78343 0.951337 6.36604 0.983543C4.94864 1.01575 3.59823 1.59316 2.59573 2.59567C1.59322 3.59818 1.01581 4.94859 0.983601 6.36598C0.951395 7.78337 1.46688 9.15861 2.42282 10.2056C3.37875 11.2526 4.70154 11.8908 6.11601 11.9873C7.53048 12.0839 8.92771 11.6314 10.0171 10.724L13.7931 14.5L14.5001 13.793ZM2.00006 6.5C2.00006 5.60998 2.26398 4.73995 2.75844 3.99993C3.25291 3.25991 3.95571 2.68314 4.77798 2.34254C5.60025 2.00195 6.50505 1.91283 7.37796 2.08647C8.25088 2.2601 9.0527 2.68868 9.68204 3.31802C10.3114 3.94736 10.74 4.74918 10.9136 5.62209C11.0872 6.49501 10.9981 7.39981 10.6575 8.22207C10.3169 9.04434 9.74014 9.74715 9.00012 10.2416C8.2601 10.7361 7.39007 11 6.50006 11C5.30699 10.9987 4.16317 10.5241 3.31954 9.68052C2.47591 8.83689 2.00138 7.69307 2.00006 6.5Z" fill="#898989"/>
</svg>
